<svg width="669" height="4385" viewBox="0 0 669 4385" fill="none" xmlns="http://www.w3.org/2000/svg">
<path d="M455.643 -147C552.227 -11.6769 592.293 145.067 565.907 304.844C540.684 457.64 462.876 595.668 385.969 731.503C319.03 849.719 414.49 1023.35 361.082 1148.15C307.974 1272.25 91.6624 1337.51 129.235 1474.83C191.007 1700.6 358.421 1750.19 454.181 1865.77C555.75 1988.38 631.834 2190.16 632.396 2343.02C633.408 2632.68 400.548 2830.84 182.793 3033.2C89.0941 3120.24 27.7778 3239.4 6.18963 3361.49C-23.0093 3526.63 105.744 3728.14 226.847 3796.54C516.527 3960.14 645.113 4194.33 667 4458" stroke="#6D0602" stroke-width="3" stroke-miterlimit="10"/>
</svg>
