<svg width="654" height="4385" viewBox="0 0 654 4385" fill="none" xmlns="http://www.w3.org/2000/svg">
<path d="M445.41 -56C539.816 76.3551 578.978 229.661 553.188 385.934C528.533 535.379 452.481 670.38 377.308 803.235C311.879 918.858 405.186 1088.68 352.983 1210.74C301.072 1332.12 89.6399 1395.95 126.365 1530.26C186.743 1751.08 350.382 1799.58 443.981 1912.63C543.26 2032.54 617.627 2229.9 618.176 2379.41C619.165 2662.71 391.558 2856.53 178.715 3054.45C87.1295 3139.58 27.1963 3256.13 6.09507 3375.54C-22.4453 3537.05 103.404 3734.15 221.775 3801.04C504.921 3961.06 630.606 4190.12 652 4448" stroke="#6D0602" stroke-width="3" stroke-miterlimit="10"/>
</svg>
