<svg width="777" height="5130" viewBox="0 0 777 5130" fill="none" xmlns="http://www.w3.org/2000/svg">
<path d="M578.433 -213C701.161 -56.0194 752.071 125.81 718.544 311.159C686.493 488.409 587.625 648.528 489.9 806.102C404.843 943.237 526.142 1144.66 458.277 1289.43C390.794 1433.39 115.932 1509.09 163.674 1668.39C242.166 1930.3 454.896 1987.82 576.576 2121.91C705.638 2264.13 802.315 2498.2 803.029 2675.54C804.315 3011.55 508.426 3241.42 231.729 3476.17C112.668 3577.14 34.7552 3715.37 7.32365 3857C-29.7788 4048.57 133.825 4282.33 287.707 4361.67C655.797 4551.46 819.188 4823.13 847 5129" stroke="#6D0602" stroke-width="3" stroke-miterlimit="10"/>
</svg>
