<svg width="605" height="3332" viewBox="0 0 605 3332" fill="none" xmlns="http://www.w3.org/2000/svg">
<path d="M704.999 3331C681.861 3157.21 545.928 3002.86 239.695 2895.02C111.672 2849.94 -24.4382 2717.12 6.42924 2608.28C29.251 2527.81 94.071 2449.27 193.124 2391.91C423.322 2258.53 669.488 2127.92 668.418 1937C667.824 1836.25 587.393 1703.25 480.02 1622.45C378.788 1546.26 201.807 1513.58 136.505 1364.77C96.7864 1274.26 325.458 1231.25 381.601 1149.45C438.061 1067.2 337.147 952.756 407.91 874.839C489.212 785.31 571.466 694.334 598.131 593.626C626.024 488.315 525.179 339.043 364.349 285.835C292.399 262.032 158.665 185.534 222.374 0.999997" stroke="#6D0602" stroke-width="3" stroke-miterlimit="10"/>
</svg>
