<svg width="643" height="3328" viewBox="0 0 643 3328" fill="none" xmlns="http://www.w3.org/2000/svg">
<path d="M724 3327C700.237 3149.21 560.629 2991.29 246.119 2880.97C114.636 2834.85 -25.1529 2698.97 6.54878 2587.62C29.9873 2505.29 96.5593 2424.94 198.289 2366.25C434.709 2229.8 687.528 2096.18 686.43 1900.86C685.819 1797.78 603.215 1661.72 492.939 1579.05C388.972 1501.11 207.207 1467.67 140.14 1315.44C99.3478 1222.84 334.2 1178.83 391.861 1095.15C449.847 1011 346.204 893.921 418.88 814.208C502.38 722.614 586.857 629.541 614.242 526.51C642.889 418.771 564.57 313.578 399.187 239.894C345.19 215.836 216.271 147.317 204.763 0.999966" stroke="#6D0602" stroke-width="3" stroke-miterlimit="10"/>
</svg>
