<svg width="543" height="3494" viewBox="0 0 543 3494" fill="none" xmlns="http://www.w3.org/2000/svg">
<path d="M397.313 -114C481.691 -8.00431 516.693 114.77 493.642 239.92C471.606 359.602 403.632 467.717 336.444 574.113C277.965 666.709 361.361 802.711 314.703 900.461C268.306 997.666 79.3314 1048.78 112.155 1156.34C166.121 1333.19 312.378 1372.03 396.036 1462.56C484.769 1558.6 551.237 1716.64 551.728 1836.38C552.612 2063.26 349.181 2218.48 158.945 2376.98C77.0877 2445.16 23.5204 2538.5 4.66056 2634.13C-20.8483 2763.47 91.6335 2921.32 197.431 2974.89C450.502 3103.04 562.838 3286.47 581.959 3493" stroke="#6D0602" stroke-width="2" stroke-miterlimit="10"/>
</svg>
