<svg width="733" height="5118" viewBox="0 0 733 5118" fill="none" xmlns="http://www.w3.org/2000/svg">
<path d="M565.472 -108C685.44 45.5424 735.206 223.389 702.432 404.679C671.102 578.047 574.457 734.658 478.929 888.781C395.785 1022.91 514.357 1219.92 448.018 1361.52C382.052 1502.33 113.37 1576.37 160.039 1732.19C236.766 1988.35 444.713 2044.62 563.656 2175.77C689.816 2314.88 784.32 2543.82 785.018 2717.27C786.275 3045.92 497.039 3270.76 226.563 3500.37C110.18 3599.12 34.0187 3734.33 7.20397 3872.86C-29.0642 4060.23 130.861 4288.87 281.283 4366.48C641.097 4552.11 800.814 4817.83 828 5117" stroke="#6D0602" stroke-width="3" stroke-miterlimit="10"/>
</svg>
