<svg width="513" height="3486" viewBox="0 0 513 3486" fill="none" xmlns="http://www.w3.org/2000/svg">
<path d="M388.785 -43C471.139 60.6742 505.301 180.759 482.803 303.169C461.296 420.229 394.953 525.976 329.377 630.042C272.302 720.61 353.696 853.633 308.158 949.242C262.875 1044.32 78.4357 1094.32 110.472 1199.52C163.142 1372.49 305.889 1410.48 387.539 1499.03C474.142 1592.96 539.015 1747.55 539.494 1864.67C540.357 2086.58 341.808 2238.39 156.138 2393.43C76.2457 2460.11 23.9641 2551.4 5.55686 2644.94C-19.3398 2771.45 90.4424 2925.84 193.701 2978.24C440.698 3103.58 550.338 3283 569 3485" stroke="#6D0602" stroke-width="2" stroke-miterlimit="10"/>
</svg>
