<svg width="450" height="3217" viewBox="0 0 450 3217" fill="none" xmlns="http://www.w3.org/2000/svg">
<path d="M281.457 0.999992C357.563 122.365 389.133 262.94 368.342 406.237C348.467 543.272 287.157 667.063 226.556 788.887C173.81 894.909 249.03 1050.63 206.946 1162.55C165.098 1273.85 -5.34868 1332.38 24.2571 1455.54C72.9315 1658.02 204.849 1702.5 280.305 1806.16C360.339 1916.12 420.29 2097.08 420.733 2234.18C421.53 2493.96 238.044 2671.68 66.4592 2853.17C-7.37246 2931.22 -55.6878 3038.1 -72.6986 3147.6C-95.7065 3295.7 5.74726 3476.42 101.172 3537.77C329.432 3684.49 430.754 3894.53 448 4131" stroke="#6D0602" stroke-width="3" stroke-miterlimit="10"/>
</svg>
