<svg width="465" height="3135" viewBox="0 0 465 3135" fill="none" xmlns="http://www.w3.org/2000/svg">
<path d="M300.271 0.999994C374.634 119.69 405.481 257.169 385.166 397.308C365.746 531.324 305.84 652.387 246.627 771.526C195.09 875.212 268.587 1027.5 227.466 1136.96C186.577 1245.81 20.0333 1303.05 48.9611 1423.49C96.5208 1621.51 225.417 1665.01 299.145 1766.39C377.346 1873.92 435.924 2050.9 436.357 2184.98C437.136 2439.03 257.852 2612.83 90.1967 2790.32C18.0559 2866.66 -29.1531 2971.18 -45.7743 3078.26C-68.2553 3223.1 30.8751 3399.85 124.115 3459.84C347.147 3603.33 446.148 3808.74 463 4040" stroke="#6D0602" stroke-width="3" stroke-miterlimit="10"/>
</svg>
