<svg width="439" height="3060" viewBox="0 0 439 3060" fill="none" xmlns="http://www.w3.org/2000/svg">
<path d="M194.947 1.99999C94.1595 74.965 46.4303 179.133 63.8884 285.821C80.5777 387.847 132.059 480.012 182.946 570.713C227.236 649.649 164.074 765.588 199.412 848.917C234.551 931.783 377.675 975.359 352.815 1067.05C311.943 1217.81 201.172 1250.92 137.813 1328.1C70.6088 1409.96 20.268 1544.7 19.8961 1646.77C19.2265 1840.18 173.299 1972.5 317.378 2107.62C379.374 2165.74 419.944 2245.31 434.228 2326.83C453.548 2437.1 368.357 2571.65 288.229 2617.32C96.5611 2726.57 11.4817 2882.94 -2.99992 3059" stroke="#6D0602" stroke-width="3" stroke-miterlimit="10"/>
</svg>
