<svg width="416" height="3020" viewBox="0 0 416 3020" fill="none" xmlns="http://www.w3.org/2000/svg">
<path d="M192.88 2C94.7345 54.7151 33.1945 202.607 50.2162 306.943C66.4883 406.721 116.683 496.855 166.297 585.556C209.48 662.753 147.897 776.136 182.351 857.629C216.612 938.668 356.158 981.283 331.919 1070.96C292.069 1218.39 184.068 1250.77 122.292 1326.25C56.7687 1406.31 7.68644 1538.07 7.32377 1637.9C6.67098 1827.04 156.892 1956.45 297.368 2088.59C357.814 2145.43 397.37 2223.24 411.297 2302.97C430.134 2410.8 347.073 2542.39 268.949 2587.06C82.0722 2693.89 -0.880141 2846.82 -14.9997 3019" stroke="#6D0602" stroke-width="3" stroke-miterlimit="10"/>
</svg>
